<svg width="93" height="93" viewBox="0 0 93 93" fill="none" xmlns="http://www.w3.org/2000/svg">
<path fill-rule="evenodd" clip-rule="evenodd" d="M39.9835 34.394C40.4764 33.9123 40.6103 33.144 40.2626 32.5102C39.8442 31.7476 38.8868 31.4686 38.1242 31.887C37.3616 32.3054 37.0826 33.2628 37.501 34.0254C37.8217 34.61 38.4592 34.9104 39.0828 34.8304L41.0001 38.4076L34.0218 42.2365C33.5376 42.5022 33.3561 43.114 33.6733 43.5661C34.8555 45.2516 36.5816 46.4952 38.5771 47.0767C39.8694 47.4533 41.2156 47.535 42.5207 47.3322L47.4967 56.4011C47.7623 56.8853 48.3702 57.0624 48.8544 56.7968L52.3612 54.8727C52.8454 54.607 53.0226 53.9991 52.7569 53.5149L47.8146 44.5073C48.7579 43.4838 49.4629 42.2477 49.8597 40.8862C50.4412 38.8908 50.3195 36.7668 49.5331 34.8642C49.3221 34.3538 48.7086 34.1781 48.2244 34.4438L41.8769 37.9266L39.9835 34.394ZM41.4214 50.8375C41.1557 50.3533 40.5479 50.1762 40.0637 50.4418L29.2364 56.3826C28.7522 56.6482 28.575 57.2561 28.8407 57.7403L31.9193 63.3512C32.185 63.8354 32.7928 64.0125 33.277 63.7469L44.1043 57.8061C44.5885 57.5405 44.7657 56.9326 44.5 56.4484L41.4214 50.8375ZM63.384 37.6464C63.8682 37.3807 64.4761 37.5578 64.7417 38.042L67.8203 43.6529C68.086 44.1371 67.9088 44.745 67.4246 45.0107L56.5974 50.9514C56.1132 51.2171 55.5053 51.0399 55.2396 50.5557L52.161 44.9448C51.8954 44.4606 52.0725 43.8527 52.5567 43.5871L63.384 37.6464Z" fill="#3B97A0"/>
</svg>
