<svg width="93" height="93" viewBox="0 0 93 93" fill="none" xmlns="http://www.w3.org/2000/svg">
<path fill-rule="evenodd" clip-rule="evenodd" d="M39.9837 34.394C40.4766 33.9123 40.6106 33.144 40.2628 32.5102C39.8444 31.7476 38.887 31.4686 38.1244 31.887C37.3618 32.3054 37.0828 33.2628 37.5012 34.0254C37.822 34.61 38.4594 34.9104 39.0831 34.8304L41.0004 38.4076L34.022 42.2365C33.5378 42.5022 33.3564 43.114 33.6735 43.5661C34.8558 45.2516 36.5819 46.4952 38.5773 47.0767C39.8696 47.4533 41.2159 47.535 42.521 47.3322L47.4969 56.4011C47.7626 56.8853 48.3705 57.0624 48.8547 56.7968L52.3615 54.8727C52.8457 54.607 53.0228 53.9991 52.7571 53.5149L47.8148 44.5073C48.7581 43.4838 49.4631 42.2477 49.8599 40.8862C50.4414 38.8908 50.3198 36.7668 49.5333 34.8642C49.3224 34.3538 48.7088 34.1781 48.2246 34.4438L41.8771 37.9266L39.9837 34.394ZM41.4217 50.8375C41.156 50.3533 40.5481 50.1762 40.0639 50.4418L29.2366 56.3826C28.7524 56.6482 28.5753 57.2561 28.841 57.7403L31.9195 63.3512C32.1852 63.8354 32.7931 64.0125 33.2773 63.7469L44.1046 57.8061C44.5888 57.5405 44.7659 56.9326 44.5003 56.4484L41.4217 50.8375ZM63.3842 37.6464C63.8684 37.3807 64.4763 37.5578 64.742 38.042L67.8206 43.6529C68.0862 44.1371 67.9091 44.745 67.4249 45.0107L56.5976 50.9514C56.1134 51.2171 55.5055 51.0399 55.2399 50.5557L52.1613 44.9448C51.8956 44.4606 52.0727 43.8527 52.5569 43.5871L63.3842 37.6464Z" fill="#FCC962"/>
</svg>
