<svg width="50" height="50" viewBox="0 0 50 50" fill="none" xmlns="http://www.w3.org/2000/svg">
<path d="M19.0489 12.927C19.3483 12.0057 20.6517 12.0057 20.9511 12.9271L23.3677 20.3647C23.5016 20.7768 23.8855 21.0557 24.3188 21.0557H32.1392C33.1079 21.0557 33.5107 22.2953 32.727 22.8647L26.4001 27.4615C26.0496 27.7161 25.903 28.1675 26.0369 28.5795L28.4535 36.0172C28.7529 36.9385 27.6984 37.7047 26.9147 37.1353L20.5878 32.5385C20.2373 32.2839 19.7627 32.2839 19.4122 32.5385L13.0853 37.1353C12.3016 37.7047 11.2471 36.9385 11.5465 36.0172L13.9631 28.5795C14.097 28.1675 13.9504 27.7161 13.5999 27.4615L7.27299 22.8647C6.48928 22.2953 6.89206 21.0557 7.86078 21.0557H15.6812C16.1145 21.0557 16.4984 20.7768 16.6323 20.3647L19.0489 12.927Z" fill="#3B97A0"/>
<path d="M33.0621 9.5345C33.3843 8.66389 34.6157 8.66389 34.9379 9.53451L35.7311 11.6781C35.8323 11.9518 36.0482 12.1677 36.3219 12.2689L38.4655 13.0621C39.3361 13.3843 39.3361 14.6157 38.4655 14.9379L36.3219 15.7311C36.0482 15.8323 35.8323 16.0482 35.7311 16.3219L34.9379 18.4655C34.6157 19.3361 33.3843 19.3361 33.0621 18.4655L32.2689 16.3219C32.1677 16.0482 31.9518 15.8323 31.6781 15.7311L29.5345 14.9379C28.6639 14.6157 28.6639 13.3843 29.5345 13.0621L31.6781 12.2689C31.9518 12.1677 32.1677 11.9518 32.2689 11.6781L33.0621 9.5345Z" fill="#3B97A0"/>
<path d="M40.0621 21.5345C40.3843 20.6639 41.6157 20.6639 41.9379 21.5345L42.7311 23.6781C42.8323 23.9518 43.0482 24.1677 43.3219 24.2689L45.4655 25.0621C46.3361 25.3843 46.3361 26.6157 45.4655 26.9379L43.3219 27.7311C43.0482 27.8323 42.8323 28.0482 42.7311 28.3219L41.9379 30.4655C41.6157 31.3361 40.3843 31.3361 40.0621 30.4655L39.2689 28.3219C39.1677 28.0482 38.9518 27.8323 38.6781 27.7311L36.5345 26.9379C35.6639 26.6157 35.6639 25.3843 36.5345 25.0621L38.6781 24.2689C38.9518 24.1677 39.1677 23.9518 39.2689 23.6781L40.0621 21.5345Z" fill="#3B97A0"/>
</svg>
