<svg width="93" height="93" viewBox="0 0 93 93" fill="none" xmlns="http://www.w3.org/2000/svg">
<mask id="path-1-outside-1_226_281" maskUnits="userSpaceOnUse" x="17.4548" y="19.8056" width="51.6482" height="46.1087" fill="black">
<rect fill="white" x="17.4548" y="19.8056" width="51.6482" height="46.1087"/>
<path fill-rule="evenodd" clip-rule="evenodd" d="M38.7103 33.4952C39.2032 33.0135 39.3371 32.2452 38.9894 31.6115C38.571 30.8489 37.6135 30.5699 36.8509 30.9883C36.0883 31.4067 35.8093 32.3641 36.2278 33.1267C36.5485 33.7113 37.1859 34.0117 37.8096 33.9316L39.7269 37.5088L32.7483 41.3378C32.2641 41.6034 32.0827 42.2153 32.3998 42.6674C33.5821 44.3528 35.3082 45.5965 37.3036 46.178C38.5959 46.5546 39.9421 46.6363 41.2472 46.4335L46.2232 55.5024C46.4889 55.9866 47.0968 56.1638 47.5809 55.8981L51.0878 53.974C51.572 53.7083 51.7491 53.1004 51.4834 52.6163L46.5411 43.6086C47.4844 42.5851 48.1894 41.3489 48.5862 39.9874C49.1677 37.992 49.0461 35.8681 48.2596 33.9654C48.0486 33.455 47.4351 33.2794 46.9509 33.5451L40.6036 37.0277L38.7103 33.4952ZM40.1479 49.9388C39.8823 49.4546 39.2744 49.2775 38.7902 49.5432L27.9629 55.4839C27.4787 55.7495 27.3016 56.3574 27.5672 56.8416L30.6458 62.4525C30.9115 62.9367 31.5194 63.1139 32.0036 62.8482L42.8309 56.9075C43.3151 56.6418 43.4922 56.0339 43.2265 55.5497L40.1479 49.9388ZM62.1108 36.7477C62.595 36.482 63.2028 36.6592 63.4685 37.1434L66.5471 42.7543C66.8128 43.2385 66.6356 43.8463 66.1514 44.112L55.3241 50.0527C54.8399 50.3184 54.2321 50.1412 53.9664 49.657L50.8878 44.0461C50.6221 43.562 50.7993 42.9541 51.2835 42.6884L62.1108 36.7477Z"/>
</mask>
<path fill-rule="evenodd" clip-rule="evenodd" d="M38.7103 33.4952C39.2032 33.0135 39.3371 32.2452 38.9894 31.6115C38.571 30.8489 37.6135 30.5699 36.8509 30.9883C36.0883 31.4067 35.8093 32.3641 36.2278 33.1267C36.5485 33.7113 37.1859 34.0117 37.8096 33.9316L39.7269 37.5088L32.7483 41.3378C32.2641 41.6034 32.0827 42.2153 32.3998 42.6674C33.5821 44.3528 35.3082 45.5965 37.3036 46.178C38.5959 46.5546 39.9421 46.6363 41.2472 46.4335L46.2232 55.5024C46.4889 55.9866 47.0968 56.1638 47.5809 55.8981L51.0878 53.974C51.572 53.7083 51.7491 53.1004 51.4834 52.6163L46.5411 43.6086C47.4844 42.5851 48.1894 41.3489 48.5862 39.9874C49.1677 37.992 49.0461 35.8681 48.2596 33.9654C48.0486 33.455 47.4351 33.2794 46.9509 33.5451L40.6036 37.0277L38.7103 33.4952ZM40.1479 49.9388C39.8823 49.4546 39.2744 49.2775 38.7902 49.5432L27.9629 55.4839C27.4787 55.7495 27.3016 56.3574 27.5672 56.8416L30.6458 62.4525C30.9115 62.9367 31.5194 63.1139 32.0036 62.8482L42.8309 56.9075C43.3151 56.6418 43.4922 56.0339 43.2265 55.5497L40.1479 49.9388ZM62.1108 36.7477C62.595 36.482 63.2028 36.6592 63.4685 37.1434L66.5471 42.7543C66.8128 43.2385 66.6356 43.8463 66.1514 44.112L55.3241 50.0527C54.8399 50.3184 54.2321 50.1412 53.9664 49.657L50.8878 44.0461C50.6221 43.562 50.7993 42.9541 51.2835 42.6884L62.1108 36.7477Z" fill="#FFFAF0"/>
<path d="M38.7103 33.4952L38.0113 32.78L37.4739 33.3053L37.8289 33.9676L38.7103 33.4952ZM37.8096 33.9316L38.691 33.4592L38.3655 32.8521L37.6823 32.9398L37.8096 33.9316ZM39.7269 37.5088L40.2079 38.3855L41.076 37.9091L40.6082 37.0364L39.7269 37.5088ZM32.7483 41.3378L33.2293 42.2145L32.7483 41.3378ZM32.3998 42.6674L33.2185 42.0931L33.2185 42.0931L32.3998 42.6674ZM41.2472 46.4335L42.1239 45.9524L41.7866 45.3376L41.0937 45.4453L41.2472 46.4335ZM51.4834 52.6163L50.6067 53.0973L51.4834 52.6163ZM46.5411 43.6086L45.8058 42.9309L45.3186 43.4595L45.6644 44.0896L46.5411 43.6086ZM48.5862 39.9874L49.5463 40.2672L49.5463 40.2672L48.5862 39.9874ZM48.2596 33.9654L49.1838 33.5834L49.1838 33.5834L48.2596 33.9654ZM46.9509 33.5451L47.4319 34.4218L46.9509 33.5451ZM40.6036 37.0277L39.7222 37.5001L40.1993 38.3902L41.0846 37.9044L40.6036 37.0277ZM38.7902 49.5432L39.2712 50.4199L38.7902 49.5432ZM40.1479 49.9388L39.2712 50.4199L40.1479 49.9388ZM27.9629 55.4839L27.4819 54.6072L27.9629 55.4839ZM32.0036 62.8482L32.4846 63.7249L32.0036 62.8482ZM42.8309 56.9075L42.3498 56.0308L42.8309 56.9075ZM43.2265 55.5497L44.1032 55.0687L43.2265 55.5497ZM62.1108 36.7477L61.6297 35.871L62.1108 36.7477ZM51.2835 42.6884L51.7645 43.5651L51.2835 42.6884ZM38.1127 32.0925C38.2389 32.3226 38.1916 32.6038 38.0113 32.78L39.4092 34.2104C40.2147 33.4233 40.4353 32.1678 39.8661 31.1304L38.1127 32.0925ZM37.332 31.865C37.6104 31.7122 37.9599 31.8141 38.1127 32.0925L39.8661 31.1304C39.182 29.8836 37.6167 29.4275 36.3699 30.1116L37.332 31.865ZM37.1045 32.6457C36.9517 32.3673 37.0536 32.0177 37.332 31.865L36.3699 30.1116C35.1231 30.7957 34.667 32.361 35.3511 33.6077L37.1045 32.6457ZM37.6823 32.9398C37.4527 32.9692 37.2208 32.8577 37.1045 32.6457L35.3511 33.6077C35.8762 34.5648 36.9192 35.0542 37.9369 34.9235L37.6823 32.9398ZM40.6082 37.0364L38.691 33.4592L36.9282 34.404L38.8455 37.9812L40.6082 37.0364ZM39.2458 36.6321L32.2673 40.4611L33.2293 42.2145L40.2079 38.3855L39.2458 36.6321ZM32.2673 40.4611C31.3283 40.9763 30.8792 42.241 31.5811 43.2417L33.2185 42.0931C33.2273 42.1057 33.2361 42.1254 33.2398 42.1482C33.2432 42.1696 33.241 42.1861 33.2383 42.196C33.2334 42.2139 33.2259 42.2164 33.2293 42.2145L32.2673 40.4611ZM31.5811 43.2417C32.8933 45.1123 34.8091 46.4926 37.0238 47.1381L37.5834 45.2179C35.8073 44.7003 34.2708 43.5934 33.2185 42.0931L31.5811 43.2417ZM37.0238 47.1381C38.4581 47.556 39.9524 47.6467 41.4008 47.4216L41.0937 45.4453C39.9319 45.6259 38.7337 45.5531 37.5834 45.2179L37.0238 47.1381ZM40.3705 46.9145L45.3465 55.9835L47.0999 55.0214L42.1239 45.9524L40.3705 46.9145ZM45.3465 55.9835C45.8778 56.9518 47.0936 57.3061 48.062 56.7748L47.0999 55.0214L45.3465 55.9835ZM48.062 56.7748L51.5688 54.8507L50.6067 53.0973L47.0999 55.0214L48.062 56.7748ZM51.5688 54.8507C52.5372 54.3194 52.8915 53.1036 52.3601 52.1352L50.6067 53.0973L51.5688 54.8507ZM52.3601 52.1352L47.4178 43.1276L45.6644 44.0896L50.6067 53.0973L52.3601 52.1352ZM47.2765 44.2863C48.3233 43.1503 49.1059 41.7784 49.5463 40.2672L47.6261 39.7077C47.273 40.9195 46.6455 42.0198 45.8058 42.9309L47.2765 44.2863ZM49.5463 40.2672C50.1917 38.0525 50.0567 35.6952 49.1838 33.5834L47.3355 34.3474C48.0355 36.041 48.1437 37.9316 47.6261 39.7077L49.5463 40.2672ZM49.1838 33.5834C48.7169 32.4538 47.4089 32.1531 46.4699 32.6684L47.4319 34.4218C47.4354 34.4199 47.4293 34.4249 47.4116 34.4194C47.4017 34.4163 47.3866 34.4094 47.3705 34.395C47.3531 34.3797 47.3413 34.3617 47.3355 34.3474L49.1838 33.5834ZM46.4699 32.6684L40.1226 36.151L41.0846 37.9044L47.4319 34.4218L46.4699 32.6684ZM37.8289 33.9676L39.7222 37.5001L41.485 36.5553L39.5916 33.0228L37.8289 33.9676ZM39.2712 50.4199L39.2712 50.4199L41.0246 49.4578C40.4933 48.4894 39.2776 48.1351 38.3092 48.6665L39.2712 50.4199ZM28.4439 56.3606L39.2712 50.4199L38.3092 48.6665L27.4819 54.6072L28.4439 56.3606ZM28.4439 56.3606L28.4439 56.3606L27.4819 54.6072C26.5135 55.1385 26.1592 56.3543 26.6905 57.3226L28.4439 56.3606ZM31.5225 61.9715L28.4439 56.3606L26.6905 57.3226L29.7691 62.9336L31.5225 61.9715ZM31.5225 61.9715L31.5225 61.9715L29.7691 62.9336C30.3005 63.9019 31.5162 64.2562 32.4846 63.7249L31.5225 61.9715ZM42.3498 56.0308L31.5225 61.9715L32.4846 63.7249L43.3119 57.7842L42.3498 56.0308ZM42.3498 56.0308L43.3119 57.7842C44.2803 57.2528 44.6346 56.0371 44.1032 55.0687L42.3498 56.0308ZM39.2712 50.4199L42.3498 56.0308L44.1032 55.0687L41.0246 49.4578L39.2712 50.4199ZM64.3452 36.6623C63.8139 35.6939 62.5981 35.3396 61.6297 35.871L62.5918 37.6244L64.3452 36.6623ZM67.4238 42.2732L64.3452 36.6623L62.5918 37.6244L65.6704 43.2353L67.4238 42.2732ZM66.6325 44.9887C67.6008 44.4574 67.9551 43.2416 67.4238 42.2732L65.6704 43.2353L66.6325 44.9887ZM55.8052 50.9294L66.6325 44.9887L65.6704 43.2353L54.8431 49.176L55.8052 50.9294ZM53.0897 50.1381C53.621 51.1065 54.8368 51.4608 55.8052 50.9294L54.8431 49.176L53.0897 50.1381ZM50.0111 44.5272L53.0897 50.1381L54.8431 49.176L51.7645 43.5651L50.0111 44.5272ZM50.8024 41.8117C49.8341 42.343 49.4798 43.5588 50.0111 44.5272L51.7645 43.5651L50.8024 41.8117ZM61.6297 35.871L50.8024 41.8117L51.7645 43.5651L62.5918 37.6244L61.6297 35.871Z" fill="#3B97A0" mask="url(#path-1-outside-1_226_281)"/>
</svg>
