<svg width="50" height="50" viewBox="0 0 50 50" fill="none" xmlns="http://www.w3.org/2000/svg">
<path d="M20.6643 12.6953C20.1405 11.083 17.8595 11.083 17.3357 12.6953L14.919 20.133C14.8855 20.236 14.7895 20.3057 14.6812 20.3057H6.86078C5.16552 20.3057 4.46065 22.475 5.83215 23.4715L12.159 28.0683C12.2467 28.1319 12.2833 28.2448 12.2499 28.3478L9.8332 35.7855C9.30934 37.3977 11.1547 38.7385 12.5262 37.742L18.8531 33.1453C18.9407 33.0816 19.0593 33.0816 19.1469 33.1453L25.4738 37.742C26.8453 38.7385 28.6907 37.3977 28.1668 35.7855L25.7501 28.3478C25.7167 28.2448 25.7533 28.1319 25.841 28.0683L32.1678 23.4715C33.5393 22.4751 32.8345 20.3057 31.1392 20.3057H23.3188C23.2105 20.3057 23.1145 20.236 23.081 20.133L20.6643 12.6953Z" fill="#002746" stroke="#FCC962" stroke-width="1.5"/>
<path d="M34.6412 9.27423C34.0775 7.75065 31.9225 7.75064 31.3588 9.27423L30.5655 11.4178C30.5402 11.4863 30.4863 11.5402 30.4178 11.5655L28.2742 12.3588C26.7506 12.9225 26.7506 15.0775 28.2742 15.6412L30.4178 16.4345C30.4863 16.4598 30.5402 16.5137 30.5655 16.5822L31.3588 18.7258C31.9225 20.2494 34.0775 20.2494 34.6412 18.7258L35.4345 16.5822C35.4598 16.5137 35.5137 16.4598 35.5822 16.4345L37.7258 15.6412C39.2494 15.0775 39.2494 12.9225 37.7258 12.3588L35.5822 11.5655C35.5137 11.5402 35.4598 11.4863 35.4345 11.4178L34.6412 9.27423Z" fill="#002746" stroke="#FCC962" stroke-width="1.5"/>
<path d="M41.6412 21.2742C41.0775 19.7506 38.9225 19.7506 38.3588 21.2742L37.5655 23.4178C37.5402 23.4863 37.4863 23.5402 37.4178 23.5655L35.2742 24.3588C33.7506 24.9225 33.7506 27.0775 35.2742 27.6412L37.4178 28.4345C37.4863 28.4598 37.5402 28.5137 37.5655 28.5822L38.3588 30.7258C38.9225 32.2494 41.0775 32.2494 41.6412 30.7258L42.4345 28.5822C42.4598 28.5137 42.5137 28.4598 42.5822 28.4345L44.7258 27.6412C46.2494 27.0775 46.2494 24.9225 44.7258 24.3588L42.5822 23.5655C42.5137 23.5402 42.4598 23.4863 42.4345 23.4178L41.6412 21.2742Z" fill="#002746" stroke="#FCC962" stroke-width="1.5"/>
</svg>
