<svg width="50" height="50" viewBox="0 0 50 50" fill="none" xmlns="http://www.w3.org/2000/svg">
<path d="M22.8432 20.2102L20.4266 12.7725C19.9776 11.3906 18.0224 11.3906 17.5734 12.7725L15.1568 20.2102C15.0898 20.4162 14.8978 20.5557 14.6812 20.5557H6.86078C5.4077 20.5557 4.80352 22.4151 5.9791 23.2693L12.306 27.866C12.4812 27.9933 12.5546 28.219 12.4876 28.425L10.071 35.8627C9.62194 37.2447 11.2036 38.3939 12.3792 37.5398L18.7061 32.943C18.8814 32.8157 19.1186 32.8157 19.2939 32.943L25.6208 37.5398C26.7963 38.3939 28.3781 37.2447 27.929 35.8627L25.5124 28.425C25.4454 28.219 25.5188 27.9933 25.694 27.866L32.0209 23.2693C33.1965 22.4152 32.5923 20.5557 31.1392 20.5557H23.3188C23.1022 20.5557 22.9102 20.4162 22.8432 20.2102Z" fill="#FFFAF0" stroke="#3B97A0"/>
<path d="M35.2 11.5046L34.4068 9.36099C33.9235 8.05506 32.0765 8.05506 31.5932 9.36099L30.8 11.5046C30.7494 11.6415 30.6415 11.7494 30.5046 11.8L28.361 12.5932C27.0551 13.0765 27.0551 14.9235 28.361 15.4068L30.5046 16.2C30.6415 16.2506 30.7494 16.3585 30.8 16.4954L31.5932 18.639C32.0765 19.9449 33.9235 19.9449 34.4068 18.639L35.2 16.4954C35.2506 16.3585 35.3585 16.2506 35.4954 16.2L37.639 15.4068C38.9449 14.9235 38.9449 13.0765 37.639 12.5932L35.4954 11.8C35.3585 11.7494 35.2506 11.6415 35.2 11.5046Z" fill="#FFFAF0" stroke="#3B97A0"/>
<path d="M42.2 23.5046L41.4068 21.361C40.9235 20.0551 39.0765 20.0551 38.5932 21.361L37.8 23.5046C37.7494 23.6415 37.6415 23.7494 37.5046 23.8L35.361 24.5932C34.0551 25.0765 34.0551 26.9235 35.361 27.4068L37.5046 28.2C37.6415 28.2506 37.7494 28.3585 37.8 28.4954L38.5932 30.639C39.0765 31.9449 40.9235 31.9449 41.4068 30.639L42.2 28.4954C42.2506 28.3585 42.3585 28.2506 42.4954 28.2L44.639 27.4068C45.9449 26.9235 45.9449 25.0765 44.639 24.5932L42.4954 23.8C42.3585 23.7494 42.2506 23.6415 42.2 23.5046Z" fill="#FFFAF0" stroke="#3B97A0"/>
</svg>
