<svg width="50" height="50" viewBox="0 0 50 50" fill="none" xmlns="http://www.w3.org/2000/svg">
<rect x="23.6372" y="27.2557" width="2.57333" height="13.0401" rx="1" transform="rotate(16 23.6372 27.2557)" fill="#3B97A0"/>
<rect x="25.2559" y="27.9653" width="2.57333" height="13.0401" rx="1" transform="rotate(-16 25.2559 27.9653)" fill="#3B97A0"/>
<path d="M10.3441 20.6374C10.1895 20.139 10.444 19.6056 10.9287 19.4123L32.1492 10.9463C32.691 10.7302 33.302 11.0217 33.4749 11.5789L36.6974 21.9664C36.8702 22.5235 36.5315 23.1097 35.9625 23.2382L13.6764 28.2693C13.1674 28.3842 12.6557 28.0885 12.5011 27.5902L10.3441 20.6374Z" fill="#3B97A0"/>
<rect x="34.3999" y="10.1591" width="3.91202" height="13.0401" rx="1" transform="rotate(-17.2355 34.3999 10.1591)" fill="#3B97A0"/>
<rect x="8.15918" y="22.3957" width="9.12804" height="5.21602" rx="1" transform="rotate(-17.2355 8.15918 22.3957)" fill="#3B97A0"/>
<circle cx="25.5" cy="26.5" r="3.5" fill="#3B97A0"/>
</svg>
