<svg width="50" height="50" viewBox="0 0 50 50" fill="none" xmlns="http://www.w3.org/2000/svg">
<rect x="23.6375" y="27.2557" width="2.57333" height="13.0401" rx="1" transform="rotate(16 23.6375 27.2557)" fill="#FCC962"/>
<rect x="25.2561" y="27.9653" width="2.57333" height="13.0401" rx="1" transform="rotate(-16 25.2561 27.9653)" fill="#FCC962"/>
<path d="M10.3444 20.6374C10.1898 20.139 10.4443 19.6056 10.9289 19.4123L32.1495 10.9463C32.6913 10.7302 33.3023 11.0217 33.4751 11.5789L36.6977 21.9664C36.8705 22.5235 36.5318 23.1097 35.9628 23.2382L13.6766 28.2693C13.1677 28.3842 12.6559 28.0885 12.5013 27.5902L10.3444 20.6374Z" fill="#FCC962"/>
<rect x="34.3999" y="10.1591" width="3.91202" height="13.0401" rx="1" transform="rotate(-17.2355 34.3999 10.1591)" fill="#FCC962"/>
<rect x="8.15918" y="22.3957" width="9.12804" height="5.21602" rx="1" transform="rotate(-17.2355 8.15918 22.3957)" fill="#FCC962"/>
<circle cx="25.5" cy="26.5" r="3.5" fill="#FCC962"/>
</svg>
