<svg width="50" height="50" viewBox="0 0 50 50" fill="none" xmlns="http://www.w3.org/2000/svg">
<mask id="path-1-outside-1_226_270" maskUnits="userSpaceOnUse" x="6" y="7" width="37" height="23" fill="black">
<rect fill="white" x="6" y="7" width="37" height="23"/>
<path fill-rule="evenodd" clip-rule="evenodd" d="M34.2859 10.8631C34.1223 10.3356 34.4172 9.77534 34.9447 9.6117L36.7709 9.04517C37.2984 8.88153 37.8586 9.17648 38.0223 9.70397L41.2934 20.2483C41.4571 20.7758 41.1621 21.336 40.6346 21.4997L38.8085 22.0662C38.281 22.2298 37.7207 21.9349 37.5571 21.4074L34.2859 10.8631ZM9.93403 20.3861C9.77943 19.8878 10.034 19.3544 10.5186 19.161L31.7391 10.6951C32.2809 10.479 32.892 10.7705 33.0648 11.3276L36.2873 21.7152C36.4602 22.2723 36.1214 22.8585 35.5524 22.9869L13.2663 28.0181C12.7574 28.133 12.2456 27.8373 12.091 27.339L11.7853 26.3536L10.2495 26.8301C9.72199 26.9937 9.16172 26.6988 8.99808 26.1713L8.04517 23.0997C7.88153 22.5722 8.17648 22.0119 8.70397 21.8483L10.2398 21.3718L9.93403 20.3861Z"/>
</mask>
<path fill-rule="evenodd" clip-rule="evenodd" d="M34.2859 10.8631C34.1223 10.3356 34.4172 9.77534 34.9447 9.6117L36.7709 9.04517C37.2984 8.88153 37.8586 9.17648 38.0223 9.70397L41.2934 20.2483C41.4571 20.7758 41.1621 21.336 40.6346 21.4997L38.8085 22.0662C38.281 22.2298 37.7207 21.9349 37.5571 21.4074L34.2859 10.8631ZM9.93403 20.3861C9.77943 19.8878 10.034 19.3544 10.5186 19.161L31.7391 10.6951C32.2809 10.479 32.892 10.7705 33.0648 11.3276L36.2873 21.7152C36.4602 22.2723 36.1214 22.8585 35.5524 22.9869L13.2663 28.0181C12.7574 28.133 12.2456 27.8373 12.091 27.339L11.7853 26.3536L10.2495 26.8301C9.72199 26.9937 9.16172 26.6988 8.99808 26.1713L8.04517 23.0997C7.88153 22.5722 8.17648 22.0119 8.70397 21.8483L10.2398 21.3718L9.93403 20.3861Z" fill="#FFFAF0"/>
<path d="M34.9447 9.6117L35.241 10.5668H35.241L34.9447 9.6117ZM34.2859 10.8631L33.3308 11.1594V11.1594L34.2859 10.8631ZM36.7709 9.04517L36.4746 8.09008V8.09008L36.7709 9.04517ZM38.0223 9.70397L37.0672 10.0003V10.0003L38.0223 9.70397ZM41.2934 20.2483L42.2485 19.952V19.952L41.2934 20.2483ZM40.6346 21.4997L40.3383 20.5446L40.6346 21.4997ZM38.8085 22.0662L39.1048 23.0213H39.1048L38.8085 22.0662ZM37.5571 21.4074L36.602 21.7037L36.602 21.7037L37.5571 21.4074ZM10.5186 19.161L10.8891 20.0898H10.8891L10.5186 19.161ZM9.93403 20.3861L8.97893 20.6824L9.93403 20.3861ZM31.7391 10.6951L32.1097 11.6239V11.6239L31.7391 10.6951ZM33.0648 11.3276L34.0199 11.0313V11.0313L33.0648 11.3276ZM36.2873 21.7152L35.3322 22.0115L36.2873 21.7152ZM35.5524 22.9869L35.7727 23.9624L35.5524 22.9869ZM13.2663 28.0181L13.0461 27.0427H13.0461L13.2663 28.0181ZM12.091 27.339L11.1359 27.6353L12.091 27.339ZM11.7853 26.3536L12.7404 26.0573L12.4441 25.1022L11.489 25.3985L11.7853 26.3536ZM10.2495 26.8301L9.95317 25.875H9.95317L10.2495 26.8301ZM8.99808 26.1713L9.95317 25.875L9.95317 25.875L8.99808 26.1713ZM8.04517 23.0997L9.00027 22.8034L8.04517 23.0997ZM8.70397 21.8483L8.40767 20.8932H8.40767L8.70397 21.8483ZM10.2398 21.3718L10.5361 22.3269L11.4912 22.0306L11.1949 21.0755L10.2398 21.3718ZM34.6484 8.65661C33.5935 8.98389 33.0035 10.1044 33.3308 11.1594L35.241 10.5668V10.5668L34.6484 8.65661ZM36.4746 8.09008L34.6484 8.65661L35.241 10.5668L37.0672 10.0003L36.4746 8.09008ZM38.9774 9.40767C38.6501 8.3527 37.5296 7.76279 36.4746 8.09008L37.0672 10.0003V10.0003L38.9774 9.40767ZM42.2485 19.952L38.9774 9.40767L37.0672 10.0003L40.3383 20.5446L42.2485 19.952ZM40.9309 22.4548C41.9859 22.1275 42.5758 21.0069 42.2485 19.952L40.3383 20.5446V20.5446L40.9309 22.4548ZM39.1048 23.0213L40.9309 22.4548L40.3383 20.5446L38.5122 21.1111L39.1048 23.0213ZM36.602 21.7037C36.9293 22.7587 38.0498 23.3486 39.1048 23.0213L38.5122 21.1111V21.1111L36.602 21.7037ZM33.3308 11.1594L36.602 21.7037L38.5122 21.1111L35.241 10.5668L33.3308 11.1594ZM10.148 18.2322C9.17879 18.6189 8.66974 19.6858 8.97893 20.6824L10.8891 20.0898V20.0898L10.148 18.2322ZM31.3686 9.76629L10.148 18.2322L10.8891 20.0898L32.1097 11.6239L31.3686 9.76629ZM34.0199 11.0313C33.6742 9.91709 32.4522 9.334 31.3686 9.76629L32.1097 11.6239L32.1097 11.6239L34.0199 11.0313ZM37.2424 21.4189L34.0199 11.0313L32.1097 11.6239L35.3322 22.0115L37.2424 21.4189ZM35.7727 23.9624C36.9106 23.7055 37.5881 22.5331 37.2424 21.4189L35.3322 22.0115H35.3322L35.7727 23.9624ZM13.4865 28.9936L35.7727 23.9624L35.3322 22.0115L13.0461 27.0427L13.4865 28.9936ZM11.1359 27.6353C11.4451 28.6319 12.4686 29.2234 13.4865 28.9936L13.0461 27.0427H13.0461L11.1359 27.6353ZM10.8302 26.6499L11.1359 27.6353L13.0461 27.0427L12.7404 26.0573L10.8302 26.6499ZM11.489 25.3985L9.95317 25.875L10.5458 27.7852L12.0816 27.3087L11.489 25.3985ZM9.95317 25.875H9.95317L8.04298 26.4676C8.37026 27.5225 9.4908 28.1125 10.5458 27.7852L9.95317 25.875ZM9.95317 25.875L9.00027 22.8034L7.09008 23.396L8.04298 26.4676L9.95317 25.875ZM9.00027 22.8034L9.00027 22.8034L8.40767 20.8932C7.3527 21.2205 6.76279 22.341 7.09008 23.396L9.00027 22.8034ZM9.00027 22.8034L10.5361 22.3269L9.94352 20.4167L8.40767 20.8932L9.00027 22.8034ZM8.97893 20.6824L9.28472 21.6681L11.1949 21.0755L10.8891 20.0898L8.97893 20.6824Z" fill="#3B97A0" mask="url(#path-1-outside-1_226_270)"/>
<mask id="path-3-outside-2_226_270" maskUnits="userSpaceOnUse" x="17.8691" y="21.7488" width="14" height="20" fill="black">
<rect fill="white" x="17.8691" y="21.7488" width="14" height="20"/>
<path fill-rule="evenodd" clip-rule="evenodd" d="M27.7534 28.519C28.2747 27.9079 28.5895 27.1151 28.5895 26.2488C28.5895 24.3158 27.0224 22.7488 25.0895 22.7488C23.1565 22.7488 21.5895 24.3158 21.5895 26.2488C21.5895 27.262 22.02 28.1746 22.708 28.8137L19.9081 38.5782C19.7559 39.1091 20.0629 39.6628 20.5938 39.8151L21.1449 39.9731C21.6758 40.1253 22.2296 39.8184 22.3818 39.2875L25.117 29.7487C25.2206 29.7479 25.3231 29.7426 25.4244 29.733L28.1642 39.2878C28.3165 39.8186 28.8702 40.1256 29.4011 39.9734L29.9522 39.8153C30.4831 39.6631 30.7901 39.1093 30.6379 38.5785L27.7534 28.519Z"/>
</mask>
<path fill-rule="evenodd" clip-rule="evenodd" d="M27.7534 28.519C28.2747 27.9079 28.5895 27.1151 28.5895 26.2488C28.5895 24.3158 27.0224 22.7488 25.0895 22.7488C23.1565 22.7488 21.5895 24.3158 21.5895 26.2488C21.5895 27.262 22.02 28.1746 22.708 28.8137L19.9081 38.5782C19.7559 39.1091 20.0629 39.6628 20.5938 39.8151L21.1449 39.9731C21.6758 40.1253 22.2296 39.8184 22.3818 39.2875L25.117 29.7487C25.2206 29.7479 25.3231 29.7426 25.4244 29.733L28.1642 39.2878C28.3165 39.8186 28.8702 40.1256 29.4011 39.9734L29.9522 39.8153C30.4831 39.6631 30.7901 39.1093 30.6379 38.5785L27.7534 28.519Z" fill="#FFFAF0"/>
<path d="M27.7534 28.519L26.9926 27.87L26.6441 28.2785L26.7921 28.7947L27.7534 28.519ZM22.708 28.8137L23.6693 29.0894L23.8386 28.499L23.3886 28.081L22.708 28.8137ZM19.9081 38.5782L18.9469 38.3025H18.9469L19.9081 38.5782ZM20.5938 39.8151L20.3181 40.7763H20.3181L20.5938 39.8151ZM21.1449 39.9731L21.4205 39.0118H21.4205L21.1449 39.9731ZM22.3818 39.2875L23.343 39.5631H23.343L22.3818 39.2875ZM25.117 29.7487L25.1093 28.7487L24.3618 28.7545L24.1557 29.473L25.117 29.7487ZM25.4244 29.733L26.3857 29.4573L26.1568 28.6589L25.3299 28.7374L25.4244 29.733ZM28.1642 39.2878L27.203 39.5634L28.1642 39.2878ZM29.4011 39.9734L29.6768 40.9346H29.6768L29.4011 39.9734ZM29.9522 39.8153L30.2279 40.7766H30.2279L29.9522 39.8153ZM30.6379 38.5785L29.6766 38.8541L30.6379 38.5785ZM27.5895 26.2488C27.5895 26.8683 27.3654 27.433 26.9926 27.87L28.5142 29.168C29.1841 28.3827 29.5895 27.3618 29.5895 26.2488H27.5895ZM25.0895 23.7488C26.4702 23.7488 27.5895 24.8681 27.5895 26.2488H29.5895C29.5895 23.7635 27.5747 21.7488 25.0895 21.7488V23.7488ZM22.5895 26.2488C22.5895 24.8681 23.7087 23.7488 25.0895 23.7488V21.7488C22.6042 21.7488 20.5895 23.7635 20.5895 26.2488H22.5895ZM23.3886 28.081C22.8957 27.6232 22.5895 26.9725 22.5895 26.2488H20.5895C20.5895 27.5514 21.1442 28.726 22.0275 29.5464L23.3886 28.081ZM21.7468 28.5381L18.9469 38.3025L20.8694 38.8538L23.6693 29.0894L21.7468 28.5381ZM18.9469 38.3025C18.6424 39.3643 19.2563 40.4719 20.3181 40.7763L20.8694 38.8538H20.8694L18.9469 38.3025ZM20.3181 40.7763L20.8692 40.9344L21.4205 39.0118L20.8694 38.8538L20.3181 40.7763ZM20.8692 40.9344C21.931 41.2388 23.0386 40.6249 23.343 39.5631L21.4205 39.0118L21.4205 39.0118L20.8692 40.9344ZM23.343 39.5631L26.0782 30.0243L24.1557 29.473L21.4205 39.0118L23.343 39.5631ZM25.3299 28.7374C25.2574 28.7443 25.1839 28.7481 25.1093 28.7487L25.1247 30.7486C25.2573 30.7476 25.3889 30.7408 25.519 30.7285L25.3299 28.7374ZM24.4632 30.0086L27.203 39.5634L29.1255 39.0121L26.3857 29.4573L24.4632 30.0086ZM27.203 39.5634C27.5074 40.6252 28.615 41.2391 29.6768 40.9346L29.1255 39.0121H29.1255L27.203 39.5634ZM29.6768 40.9346L30.2279 40.7766L29.6766 38.8541L29.1255 39.0121L29.6768 40.9346ZM30.2279 40.7766C31.2897 40.4721 31.9036 39.3646 31.5991 38.3028L29.6766 38.8541H29.6766L30.2279 40.7766ZM31.5991 38.3028L28.7146 28.2434L26.7921 28.7947L29.6766 38.8541L31.5991 38.3028Z" fill="#3B97A0" mask="url(#path-3-outside-2_226_270)"/>
</svg>
